<svg width="22" height="22" viewBox="0 0 22 22" fill="none" xmlns="http://www.w3.org/2000/svg">
<g style="mix-blend-mode:multiply">
<path d="M0 13.2419C0.676921 12.351 1.53326 11.7075 2.56258 11.3098C3.43178 10.9744 4.33101 10.8585 5.25453 10.9656C6.91288 11.1586 8.25743 11.9372 9.26602 13.2954C10.1803 14.5268 10.552 15.9327 10.4211 17.4722C10.3003 18.8899 9.75352 20.1153 8.78424 21.1346C8.60697 21.321 8.38681 21.4648 8.20453 21.6137C7.12446 20.5175 6.06727 19.4454 4.99006 18.352C5.85354 18.0145 6.14447 17.3658 5.9286 16.4955C5.78349 15.9107 5.34889 15.5937 4.78205 15.5232C4.03079 15.4301 3.5247 15.8175 3.16659 16.5146C3.12155 16.4566 3.08367 16.3957 3.03435 16.3451C2.05864 15.3449 1.08222 14.3455 0.105076 13.3468C0.0743397 13.3153 0.0357403 13.2932 0 13.2661C0 13.2595 0 13.2507 0 13.2419Z" fill="#0D4676"/>
<path d="M0 8.28893C0.446038 7.84013 0.892791 7.39279 1.33811 6.94326C1.92211 6.35312 2.50467 5.76225 3.08795 5.17138C3.11726 5.14151 3.148 5.11382 3.19232 5.07084C3.21948 5.12694 3.24092 5.1743 3.2638 5.2202C3.72556 6.16734 4.99791 6.35458 5.67197 5.57574C6.12015 5.057 6.10872 4.11277 5.62908 3.63119C5.48755 3.48912 5.29384 3.40023 5.123 3.28876C5.08869 3.26617 5.05081 3.24942 5.02222 3.23485C6.07727 2.16094 7.13089 1.08921 8.20166 0C8.34105 0.104185 8.51332 0.204728 8.65128 0.34097C9.68631 1.36898 10.2882 2.61483 10.4204 4.08509C10.7121 7.31556 8.5269 9.83058 5.86354 10.4105C3.81205 10.8571 1.99931 10.3479 0.475345 8.85503C0.318088 8.7013 0.188708 8.51843 0.0457475 8.35013C0.0335958 8.33556 0.0157257 8.32609 0 8.31443C0 8.30569 0 8.29767 0 8.28893Z" fill="#0D4676"/>
<path d="M21.1332 13.2533C20.0643 14.3358 18.994 15.419 17.918 16.5082C17.7347 16.1226 17.5047 15.7921 17.1182 15.6166C16.8485 15.494 16.5674 15.4815 16.2843 15.5483C15.655 15.6959 15.2671 16.1608 15.1914 16.8504C15.1184 17.515 15.4186 17.9696 16.2043 18.3633C15.1305 19.4509 14.0616 20.5327 12.9934 21.6137C11.6216 20.6157 10.5102 18.4147 10.8776 15.9853C11.2698 13.3914 13.1775 11.4687 15.5071 11.0258C17.9464 10.5639 20.0876 11.7911 21.1332 13.2533Z" fill="#0D4676"/>
<path d="M12.9873 0C14.0563 1.06875 15.1267 2.13896 16.2098 3.22228C15.415 3.5574 15.0169 4.12638 15.2117 5.01592C15.33 5.55648 15.8747 5.99579 16.4443 6.05407C16.9706 6.10798 17.5444 5.91419 17.9199 5.06691C18.9931 6.13931 20.0635 7.20951 21.1332 8.27899C20.3617 9.47597 18.4009 10.7793 16.0674 10.5374C13.5909 10.2803 11.5131 8.44291 10.9669 6.05334C10.3783 3.47726 11.4919 1.13213 12.9873 0Z" fill="#0D4676"/>
</g>
</svg>
