<svg width="60" height="73" viewBox="0 0 60 73" fill="none" xmlns="http://www.w3.org/2000/svg">
<path d="M0 35.0916C1.83397 32.7429 4.15402 31.0461 6.94274 29.9975C9.29766 29.1134 11.7339 28.8077 14.236 29.0902C18.7289 29.599 22.3717 31.6517 25.1043 35.2328C27.5812 38.4792 28.5882 42.1861 28.2338 46.2451C27.9065 49.983 26.425 53.2139 23.799 55.9012C23.3187 56.3926 22.7222 56.7718 22.2284 57.1646C19.3022 54.2741 16.4379 51.4475 13.5195 48.5648C15.8589 47.6749 16.6471 45.9646 16.0622 43.67C15.6691 42.1281 14.4916 41.2923 12.9559 41.1066C10.9205 40.8609 9.54942 41.8824 8.57917 43.7203C8.45717 43.5675 8.35453 43.4069 8.2209 43.2734C5.57743 40.6364 2.93202 38.0014 0.284681 35.3683C0.201407 35.2851 0.0968304 35.227 0 35.1554C0 35.138 0 35.1148 0 35.0916Z" fill="#073B74"/>
<path d="M0 22.011C1.20844 20.8193 2.41882 19.6314 3.62533 18.4377C5.20754 16.8706 6.78588 15.3015 8.36615 13.7325C8.44555 13.6532 8.52882 13.5796 8.64889 13.4655C8.72248 13.6145 8.78058 13.7402 8.84255 13.8621C10.0936 16.3772 13.5408 16.8744 15.367 14.8062C16.5812 13.4287 16.5503 10.9214 15.2508 9.64253C14.8673 9.26526 14.3425 9.02923 13.8797 8.73322C13.7867 8.67325 13.6841 8.62875 13.6066 8.59006C16.465 5.73831 19.3196 2.89237 22.2206 0C22.5983 0.276662 23.065 0.54365 23.4388 0.905438C26.243 3.6353 27.8736 6.94363 28.2319 10.8478C29.022 19.4263 23.1018 26.1049 15.886 27.6449C10.3279 28.8309 5.41669 27.4785 1.28784 23.5143C0.861791 23.1061 0.511265 22.6205 0.123943 22.1736C0.0910206 22.1349 0.0426054 22.1097 0 22.0788C0 22.0555 0 22.0343 0 22.011Z" fill="#073B74"/>
<path d="M57.535 35.1186C54.6107 37.9703 51.6826 40.824 48.7389 43.6931C48.2373 42.6774 47.6079 41.8068 46.5506 41.3444C45.8127 41.0213 45.0439 40.9884 44.2692 41.1645C42.5476 41.5534 41.4863 42.778 41.2791 44.5947C41.0796 46.3456 41.9008 47.5432 44.0504 48.5802C41.1126 51.4455 38.1883 54.2953 35.2659 57.1431C31.5128 54.5139 28.4723 48.7156 29.4774 42.3156C30.5503 35.4823 35.7695 30.4172 42.1428 29.2506C48.8164 28.0337 54.6746 31.2666 57.535 35.1186Z" fill="#073B74"/>
<path d="M35.2525 0.00195312C38.1748 2.84015 41.101 5.68222 44.0621 8.55912C41.8892 9.44908 40.8008 10.9601 41.3334 13.3223C41.6568 14.7579 43.1461 15.9245 44.7031 16.0793C46.142 16.2225 47.7107 15.7078 48.7371 13.4578C51.671 16.3056 54.5972 19.1477 57.5215 21.9879C55.4126 25.1666 50.052 28.6277 43.6728 27.9854C36.9025 27.3025 31.2224 22.4232 29.7293 16.0774C28.1199 9.23626 31.1643 3.00847 35.2525 0.00195312Z" fill="#073B74"/>
<path d="M42.7216 66.7605C44.054 68.8249 45.3902 70.893 46.742 72.9864C46.6568 72.9903 46.6025 72.9941 46.5483 72.9941C45.9886 72.9941 45.4309 72.998 44.8712 72.9902C44.8034 72.9902 44.7066 72.9477 44.6756 72.8935C43.3026 70.539 41.9372 68.1825 40.57 65.8261C40.5642 65.8164 40.5642 65.8009 40.5584 65.7719C40.7791 65.8028 40.9941 65.8415 41.211 65.8628C41.9353 65.9305 42.6441 65.8783 43.3219 65.5881C44.4045 65.1257 44.9448 64.1642 44.7763 62.9995C44.7531 62.8428 44.7318 62.6861 44.6911 62.5332C44.4626 61.6626 43.8312 61.1402 42.9346 61.1209C41.9121 61.0996 40.8895 61.1093 39.8651 61.1073C39.8283 61.1073 39.7915 61.117 39.7411 61.1248C39.7411 65.0735 39.7411 69.0183 39.7411 72.9786C39.1582 72.9786 38.5927 72.9786 38.0137 72.9786C38.0137 68.5888 38.0137 64.2029 38.0137 59.8014C38.0621 59.7976 38.1105 59.7879 38.1589 59.7879C39.8302 59.7879 41.5015 59.7763 43.1728 59.7956C43.9726 59.8053 44.7337 59.9949 45.3902 60.4844C45.9906 60.9332 46.3178 61.5485 46.4418 62.2759C46.5928 63.1562 46.5599 64.0229 46.1494 64.8374C45.673 65.7796 44.8576 66.2943 43.8661 66.5516C43.5001 66.6502 43.1186 66.6909 42.7216 66.7605Z" fill="black"/>
<path d="M60.0008 72.9961C59.4024 72.9961 58.8252 72.9922 58.2481 73C58.1164 73.0019 58.1106 72.911 58.0816 72.8336C57.4793 71.2143 56.879 69.5949 56.2767 67.9775C56.2108 67.7995 56.1837 67.5577 56.0559 67.4687C55.9261 67.3777 55.6899 67.4339 55.5001 67.4339C54.0902 67.4319 52.6785 67.4358 51.2686 67.43C51.1272 67.43 51.0594 67.4706 51.0033 67.6041C50.2829 69.3395 49.5528 71.073 48.8323 72.8084C48.7743 72.9497 48.7045 73.0058 48.5438 73.0038C47.9725 72.9922 47.4012 73 46.8086 73C46.8338 72.9303 46.8493 72.8781 46.8706 72.8278C48.7975 68.5308 50.7264 64.2339 52.6513 59.9369C52.6998 59.8286 52.7579 59.7879 52.8779 59.7899C53.4938 59.7957 54.1096 59.7957 54.7274 59.7899C54.8416 59.7879 54.8939 59.8247 54.9346 59.9311C56.6098 64.2435 58.2869 68.554 59.964 72.8645C59.9737 72.8974 59.9814 72.9342 60.0008 72.9961ZM53.6874 61.1074C52.9593 62.8215 52.2485 64.4931 51.5339 66.1763C52.9244 66.1763 54.2897 66.1763 55.6802 66.1763C55.0159 64.4873 54.3614 62.8196 53.6874 61.1074Z" fill="black"/>
<path d="M21.7237 72.9903C21.0865 72.9903 20.4842 72.9903 19.8684 72.9903C19.6534 72.4099 19.4365 71.8295 19.2235 71.2471C18.7762 70.0302 18.3269 68.8133 17.8834 67.5944C17.835 67.4629 17.773 67.4261 17.6374 67.4261C16.0881 67.43 14.5369 67.4319 12.9876 67.4261C12.8405 67.4261 12.7804 67.4803 12.7262 67.608C12.0058 69.3434 11.2776 71.0769 10.5591 72.8142C10.503 72.9516 10.4391 73.0038 10.2841 73.0019C9.71864 72.9903 9.15509 72.998 8.56055 72.998C8.5896 72.9245 8.60703 72.8665 8.6322 72.8123C10.5572 68.5231 12.4841 64.2339 14.4072 59.9427C14.4595 59.8247 14.5214 59.7879 14.6492 59.7899C15.2341 59.7976 15.819 59.7995 16.4019 59.7899C16.5607 59.7879 16.6304 59.8363 16.6885 59.9833C18.2881 64.1275 19.8936 68.2677 21.4971 72.4099C21.5707 72.5937 21.6423 72.7833 21.7237 72.9903ZM17.405 66.1802C16.7466 64.4854 16.0978 62.8157 15.4316 61.1074C14.7015 62.8235 13.9908 64.4931 13.2743 66.1802C14.657 66.1802 16.0146 66.1802 17.405 66.1802Z" fill="black"/>
<path d="M32.4088 72.9903C31.8065 72.9903 31.241 72.9903 30.6523 72.9903C30.6523 69.0319 30.6523 65.0774 30.6523 61.1055C29.3412 61.1055 28.0533 61.1055 26.75 61.1055C26.75 60.6585 26.75 60.2329 26.75 59.7976C29.9377 59.7976 33.1176 59.7976 36.311 59.7976C36.311 60.2271 36.311 60.6489 36.311 61.0939C35.0193 61.0939 33.7257 61.0939 32.4088 61.0939C32.4088 65.0677 32.4088 69.0222 32.4088 72.9903Z" fill="black"/>
<path d="M3.89065 72.9807C3.89065 69.0242 3.89065 65.0755 3.89065 61.1055C2.58537 61.1055 1.29946 61.1055 0 61.1055C0 60.6605 0 60.2388 0 59.8035C3.17991 59.8035 6.35982 59.8035 9.55135 59.8035C9.55135 60.2291 9.55135 60.6567 9.55135 61.0997C8.25189 61.0997 6.9563 61.0997 5.64328 61.0997C5.64328 65.0658 5.64328 69.0146 5.64328 72.9807C5.05842 72.9807 4.49099 72.9807 3.89065 72.9807Z" fill="black"/>
<path d="M25.0323 72.9904C24.4513 72.9904 23.8935 72.9904 23.3203 72.9904C23.3203 68.5967 23.3203 64.2068 23.3203 59.8035C23.8974 59.8035 24.459 59.8035 25.0323 59.8035C25.0323 64.1914 25.0323 68.5812 25.0323 72.9904Z" fill="black"/>
</svg>
