<svg width="25" height="22" viewBox="0 0 25 22" fill="none" xmlns="http://www.w3.org/2000/svg">
<path d="M9.46918 18.0587C9.34115 17.8066 9.11806 17.7811 9.02778 17.7811C8.9375 17.7811 8.71441 17.8062 8.59288 18.0446L8.25998 18.6978C7.98351 19.2419 7.17361 19.1819 6.98047 18.6088L6.25 16.4599L5.7895 17.8173C5.53385 18.5692 4.81814 19.0746 4.00998 19.0746H3.47222C3.08854 19.0746 2.77778 18.7697 2.77778 18.3933C2.77778 18.017 3.08854 17.7121 3.47222 17.7121H4.00998C4.21962 17.7121 4.40538 17.581 4.47179 17.386L5.26128 15.0595C5.40451 14.6419 5.80122 14.3609 6.25 14.3609C6.69878 14.3609 7.09549 14.6414 7.23828 15.0595L7.84071 16.8325C8.69792 16.1431 10.1871 16.4195 10.7053 17.4354C10.7873 17.5963 10.9436 17.6887 11.1115 17.7019V14.2055L16.6671 8.79432V6.81235H10.7639C10.191 6.81235 9.72222 6.35252 9.72222 5.7905V0H1.04167C0.46441 0 0 0.455576 0 1.02185V20.7777C0 21.3439 0.46441 21.7995 1.04167 21.7995H15.625C16.2023 21.7995 16.6667 21.3439 16.6667 20.7777V19.0746L11.1111 19.0699C10.4115 19.0567 9.78385 18.6748 9.46918 18.0587V18.0587ZM16.6667 5.19016C16.6667 4.92192 16.5582 4.6622 16.3628 4.4706L12.1137 0.29804C11.9184 0.106443 11.6536 0 11.3759 0H11.1111V5.44988H16.6667V5.19016ZM12.5 14.7726V17.7121H15.4944L22.5117 10.7814L19.5655 7.89125L12.5 14.7726V14.7726ZM24.6762 7.12444L23.293 5.76751C22.8615 5.34429 22.1615 5.34429 21.73 5.76751L20.5473 6.92773L23.4935 9.81787L24.6762 8.65764C25.1081 8.23443 25.1081 7.54766 24.6762 7.12444Z" fill="#909090"/>
</svg>
